PathFileType	4	(X/Y/Z)	s09c0001.trc
DataRate	CameraRate	NumFrames	NumMarkers	Units	OrigDataRate	OrigDataStartFrame	OrigNumFrames
200	200	4	49	mm	200	0	2000
Frame#	Time	racr			lacr			c7			jug			rlel			rdr			llel			ldr			s2			lic			ric			lasi			rasi			rpsi			lpsi			rgt			lgt			rth1			rth2			rth3			rth4			rlfc			rmfc			rsh1			rsh2			rsh3			rsh4			rlmal			rmmal			rcal			rtoe			rmt5			rmt1			lth1			lth2			lth4			lth3			llfc			lmfc			llmal			lmmal			lcal			lmt1			lmt5			lsh1			lsh2			lsh3			lsh4			ltoe			
		X1	Y1	Z1	X2	Y2	Z2	X3	Y3	Z3	X4	Y4	Z4	X5	Y5	Z5	X6	Y6	Z6	X7	Y7	Z7	X8	Y8	Z8	X9	Y9	Z9	X10	Y10	Z10	X11	Y11	Z11	X12	Y12	Z12	X13	Y13	Z13	X14	Y14	Z14	X15	Y15	Z15	X16	Y16	Z16	X17	Y17	Z17	X18	Y18	Z18	X19	Y19	Z19	X20	Y20	Z20	X21	Y21	Z21	X22	Y22	Z22	X23	Y23	Z23	X24	Y24	Z24	X25	Y25	Z25	X26	Y26	Z26	X27	Y27	Z27	X28	Y28	Z28	X29	Y29	Z29	X30	Y30	Z30	X31	Y31	Z31	X32	Y32	Z32	X33	Y33	Z33	X34	Y34	Z34	X35	Y35	Z35	X36	Y36	Z36	X37	Y37	Z37	X38	Y38	Z38	X39	Y39	Z39	X40	Y40	Z40	X41	Y41	Z41	X42	Y42	Z42	X43	Y43	Z43	X44	Y44	Z44	X45	Y45	Z45	X46	Y46	Z46	X47	Y47	Z47	X48	Y48	Z48	X49	Y49	Z49	
0	0.0000	287.721283	1353.355957	382.555298	290.133698	1336.053345	-10.457801	236.661346	1403.401001	182.574051	359.904877	1350.516602	182.351746	299.186401	1093.046143	448.934998	360.135712	878.077820	578.980530	275.578827	1051.887817	-45.547562	398.408722	895.430847	-193.117722	221.697327	943.171021	187.651108	355.374420	989.942993	49.961479	342.968811	1002.011963	339.181519	412.298492	954.120483	80.667656	402.918732	965.107422	320.224060	227.807007	978.977966	245.269302	228.452698	975.335815	135.031677	328.157104	846.305969	386.918488	333.068420	836.463684	11.899358	350.781525	715.692200	382.578888	365.957123	630.302124	368.995880	333.639740	547.740601	359.408844	396.773804	628.634338	349.266815	319.953339	450.555511	335.363586	302.580231	430.775787	237.737518	278.947540	360.918701	368.585022	303.039764	273.537231	360.072052	279.618103	189.110840	361.445435	327.403625	276.185547	329.426086	276.932709	86.496956	360.284180	286.392853	93.264503	284.117096	219.182083	31.841721	318.117920	472.051331	85.921280	354.221802	388.229523	49.050896	406.973694	401.265808	38.642895	297.607910	343.073975	710.369019	10.348881	357.637634	628.650757	26.947254	392.901978	627.213257	41.368851	329.038330	543.668823	35.473801	310.504517	448.635223	48.275063	319.658173	428.155334	140.250565	268.817078	84.817970	21.813688	291.515717	95.822479	92.518951	218.894424	26.578922	67.962051	406.426544	43.606537	87.168465	379.943176	34.897778	-18.289263	279.654663	355.033600	18.011103	297.097229	269.949615	21.639963	275.226013	198.172318	14.865348	324.116852	270.287476	50.852459	472.661652	78.722519	36.416279	
1	0.0050	287.720856	1353.372803	382.553070	290.131531	1336.068237	-10.456088	236.613007	1403.415161	182.617401	359.910156	1350.520630	182.364960	299.184387	1093.060913	448.960815	360.154633	878.091187	579.022339	275.609253	1051.893921	-45.551559	398.450684	895.444763	-193.115051	221.693665	943.145996	187.675629	355.376129	989.935730	49.992310	342.974609	1002.010498	339.172394	412.321838	954.120728	80.690773	402.913696	965.113281	320.236511	227.813751	978.980957	245.282181	228.467484	975.335510	135.047577	328.155060	846.316711	386.943726	333.051453	836.476624	11.895074	350.792786	715.681519	382.571472	365.971283	630.307129	369.009369	333.664337	547.726990	359.407776	396.796661	628.641174	349.285492	319.946747	450.555786	335.368866	302.579590	430.778625	237.738739	278.947632	360.928741	368.594055	303.057068	273.548767	360.081482	279.614532	189.115585	361.458252	327.410126	276.198334	329.441650	276.913910	86.490204	360.284546	286.394531	93.250710	284.125427	219.168839	31.831596	318.117401	472.057922	85.920311	354.208252	388.246399	49.034473	406.973419	401.291779	38.656166	297.626434	343.079071	710.365479	10.358966	357.646088	628.644226	26.981424	392.892273	627.205261	41.365479	329.051941	543.676453	35.506416	310.510590	448.644165	48.272167	319.656891	428.159424	140.263168	268.822632	84.789909	21.817225	291.517090	95.823006	92.519814	218.912979	26.559107	67.957596	406.409302	43.602524	87.173607	379.916229	34.886436	-18.285053	279.648743	355.021179	18.020990	297.113220	269.919159	21.629120	275.258972	198.142776	14.757851	324.083008	270.218292	50.883621	472.653656	78.702271	36.414062	
2	0.0100	287.731934	1353.387939	382.555908	290.129059	1336.067505	-10.450146	236.631897	1403.419067	182.575089	359.908020	1350.533447	182.339523	299.205536	1093.071167	448.971802	360.179108	878.119446	579.063599	275.610779	1051.903198	-45.565323	398.481323	895.460815	-193.131699	221.696793	943.142639	187.673279	355.393585	989.964111	49.994190	342.995026	1002.014648	339.175537	412.327393	954.110596	80.715118	402.914978	965.109131	320.234253	227.823517	978.975708	245.287994	228.485672	975.344727	135.052551	328.155060	846.316711	386.943726	333.079712	836.453186	11.895605	350.769958	715.686768	382.586731	365.973694	630.302063	369.010040	333.658081	547.731079	359.428040	396.806396	628.627075	349.277344	319.961975	450.558472	335.372345	302.608734	430.780090	237.742905	278.958466	360.920990	368.583771	303.047455	273.536957	360.089355	279.615814	189.116089	361.476227	327.409180	276.197723	329.454926	276.934692	86.498009	360.284729	286.408630	93.249199	284.136444	219.166626	31.852840	318.132324	472.063354	85.928741	354.225403	388.257111	49.042297	406.977081	401.287384	38.648037	297.615784	343.096985	710.367920	10.368155	357.648438	628.645264	26.985977	392.906433	627.212769	41.386703	329.038635	543.685059	35.519547	310.526825	448.628967	48.298645	319.648926	428.141541	140.263580	268.794189	84.778419	21.829971	291.514923	95.809662	92.520439	218.895645	26.568424	67.970482	406.426392	43.611164	87.178574	379.930969	34.817127	-18.284966	279.659668	355.031799	18.016087	297.098236	269.927643	21.636930	275.237152	198.148529	14.822248	324.117706	270.218475	50.904583	472.637421	78.717094	36.428257	
3	0.0150	287.749725	1353.395508	382.564545	290.106018	1336.082886	-10.455605	236.588470	1403.415283	182.609238	359.912109	1350.533813	182.351852	299.209473	1093.101196	448.995941	360.175537	878.153442	579.106140	275.667969	1052.285522	-45.319889	398.510620	895.485596	-193.132584	224.369095	941.869629	185.575195	354.874390	990.278442	49.649418	343.669525	1001.970581	338.976807	412.466797	953.979370	80.696083	402.937225	965.120544	320.246216	227.814758	978.986328	245.305801	228.467804	975.346924	135.075775	328.168884	846.322144	386.949738	333.064178	836.479797	11.914376	350.784515	715.677490	382.590698	365.973358	630.303162	369.010895	333.666107	547.728760	359.426453	396.587402	628.657288	349.194733	319.947723	450.551758	335.391541	302.601837	430.791260	237.740005	278.962372	360.926392	368.596680	302.614197	273.506409	359.881561	279.604340	189.117447	361.462585	328.060516	276.238251	329.684357	276.790649	86.532387	360.332886	286.396210	93.248306	284.127655	219.156006	31.836576	318.126465	471.987701	85.947701	354.317902	388.243347	49.050049	406.986633	401.292084	38.657349	297.623291	343.087860	710.368774	10.372070	357.653290	628.641663	26.989895	393.333038	626.606506	41.622337	329.090790	543.444702	35.394672	310.819305	448.592499	48.119999	319.656616	428.145233	140.267792	268.817566	84.795769	21.814896	291.520538	95.828094	92.513184	218.909241	26.561028	67.959663	406.412170	43.604801	87.177597	381.483429	33.832813	-18.592443	279.660034	355.021942	18.039213	297.106384	269.943634	21.640852	275.256989	198.128189	14.663617	324.057098	270.088959	50.987000	472.675079	78.708984	36.423710	
